<svg width="25" height="28" viewBox="0 0 25 28" fill="none" xmlns="http://www.w3.org/2000/svg">
<path d="M0 1.71829V26.2805C0.000158227 26.3337 0.0154411 26.3858 0.0439323 26.4301C0.0724235 26.4744 0.112855 26.5089 0.160156 26.5294C0.207457 26.5499 0.259523 26.5554 0.309824 26.5453C0.360125 26.5351 0.406423 26.5097 0.442911 26.4723L12.7405 14L0.442911 1.52642C0.406423 1.489 0.360125 1.46362 0.309824 1.45347C0.259523 1.44331 0.207457 1.44882 0.160156 1.46931C0.112855 1.4898 0.0724235 1.52436 0.0439323 1.56865C0.0154411 1.61294 0.000158227 1.665 0 1.71829ZM17.8967 8.87507L2.47718 0.0401858L2.46756 0.0345609C2.20194 -0.115437 1.94953 0.258308 2.16708 0.475805L14.2543 12.4956L17.8967 8.87507ZM2.16828 27.5242C1.94953 27.7417 2.20194 28.1154 2.46877 27.9654L2.47838 27.9598L17.8967 19.1249L14.2543 15.5031L2.16828 27.5242ZM24.1215 12.4375L19.8156 9.9713L15.7669 14L19.8156 18.0268L24.1215 15.5625C25.2928 14.8894 25.2928 13.1106 24.1215 12.4375Z" fill="white"/>
</svg>
