<svg width="25" height="28" viewBox="0 0 25 28" fill="none" xmlns="http://www.w3.org/2000/svg">
<path d="M20.8298 26.8766C19.2144 28.3542 17.4508 28.1209 15.753 27.421C13.9563 26.7055 12.308 26.6744 10.4125 27.421C8.03892 28.3853 6.78621 28.1053 5.36866 26.8766C-2.67507 19.0532 -1.48829 7.1391 7.64333 6.7036C9.86854 6.81247 11.418 7.85456 12.7201 7.94789C14.6651 7.5746 16.5277 6.5014 18.6046 6.64138C21.0935 6.82803 22.9726 7.76124 24.2088 9.44103C19.0661 12.3496 20.2858 18.7421 25 20.5307C24.0605 22.8638 22.8407 25.1813 20.8133 26.8922L20.8298 26.8766ZM12.5553 6.61028C12.308 3.14183 15.2915 0.279965 18.72 0C19.198 4.01283 14.8629 6.99912 12.5553 6.61028Z" fill="white"/>
</svg>
