<svg width="15" height="14" viewBox="0 0 15 14" fill="none" xmlns="http://www.w3.org/2000/svg">
<path d="M1.6542 13.1844C1.28124 12.8879 1.14828 12.4225 1.32689 12.0976L1.38338 12.0127L9.57345 1.70907L1.95547 1.72847C1.48607 1.72971 1.01899 1.35979 0.912213 0.902219C0.815149 0.486249 1.04928 0.141045 1.44532 0.0807849L1.56882 0.0714682L11.244 0.045832C11.3059 0.0456673 11.3677 0.0519534 11.4287 0.0640347C11.4467 0.0680846 11.4651 0.0722611 11.4835 0.0769818C11.4996 0.0806489 11.5157 0.0852084 11.5317 0.0901611C11.5548 0.0976822 11.5783 0.105822 11.6017 0.114856C11.62 0.121577 11.6372 0.128771 11.6542 0.136404C11.6752 0.146053 11.6973 0.156744 11.7192 0.168248C11.7346 0.176117 11.7491 0.184147 11.7634 0.192488C11.7845 0.205052 11.806 0.218531 11.8273 0.232833C11.8436 0.24358 11.8594 0.25476 11.8749 0.266321C11.8841 0.273489 11.8938 0.280968 11.9035 0.288629L11.9318 0.311603C11.9459 0.323544 11.9597 0.335812 11.9732 0.348389L11.9035 0.288629C11.95 0.325578 11.9927 0.365152 12.0316 0.406756C12.0409 0.416646 12.0503 0.427051 12.0595 0.437613C12.0783 0.459402 12.0959 0.481188 12.1124 0.50337C12.1207 0.514356 12.1292 0.526357 12.1376 0.53851C12.1543 0.562979 12.1695 0.587219 12.1836 0.611767C12.1903 0.623266 12.197 0.635581 12.2035 0.648014C12.214 0.668344 12.2236 0.688249 12.2324 0.708274C12.2386 0.722429 12.2449 0.737539 12.2507 0.752782L12.2551 0.764603C12.2685 0.801004 12.2795 0.837667 12.2879 0.874331L12.2881 0.875578L14.4481 10.3076C14.5529 10.7652 14.2569 11.1355 13.7871 11.1349C13.36 11.1342 12.9361 10.8271 12.7839 10.4275L12.7466 10.3051L11.0456 2.88165L2.85677 13.1837C2.59947 13.5074 2.06106 13.5077 1.6542 13.1844Z" fill="white"/>
</svg>
