<svg width="15" height="14" viewBox="0 0 15 14" fill="none" xmlns="http://www.w3.org/2000/svg">
<path d="M1.66351 13.3579C1.29019 13.0582 1.15671 12.588 1.33499 12.2601L1.39139 12.1745L9.57117 1.77929L1.9524 1.79054C1.48295 1.79128 1.01542 1.41723 0.908141 0.955084C0.810616 0.534949 1.04439 0.186633 1.44041 0.126217L1.56391 0.116945L11.2401 0.101644C11.302 0.101547 11.3638 0.107959 11.4248 0.120225C11.4428 0.124336 11.4613 0.128572 11.4797 0.133358C11.4958 0.137079 11.5119 0.141702 11.5279 0.14672C11.551 0.15434 11.5745 0.162585 11.5979 0.171732C11.6162 0.17854 11.6334 0.185823 11.6505 0.193548C11.6715 0.203315 11.6936 0.214134 11.7155 0.225775C11.7309 0.233737 11.7454 0.241862 11.7597 0.2503C11.7809 0.263009 11.8024 0.276642 11.8237 0.291107C11.84 0.301977 11.8558 0.313284 11.8713 0.324974C11.8805 0.332222 11.8903 0.339785 11.8999 0.347533L11.9282 0.370761C11.9423 0.382835 11.9562 0.395236 11.9697 0.40795L11.8999 0.347533C11.9464 0.384892 11.9892 0.4249 12.0282 0.466951C12.0375 0.476947 12.0469 0.487464 12.0561 0.498139C12.075 0.520164 12.0925 0.54218 12.1091 0.564596C12.1174 0.575698 12.126 0.587825 12.1343 0.600107C12.1511 0.624832 12.1663 0.649325 12.1804 0.67413C12.1871 0.685747 12.1938 0.698189 12.2003 0.710752C12.2109 0.731292 12.2205 0.751401 12.2293 0.771633C12.2356 0.785932 12.2418 0.801195 12.2476 0.816594L12.2521 0.828536C12.2655 0.865305 12.2765 0.902338 12.285 0.939369L12.2852 0.940629L14.4556 10.4671C14.5609 10.9292 14.2654 11.3029 13.7955 11.3017C13.3683 11.3006 12.9441 10.99 12.7914 10.5864L12.754 10.4627L11.0447 2.96492L2.8662 13.3585C2.60923 13.6852 2.07077 13.6849 1.66351 13.3579Z" fill="#1D57C3"/>
</svg>
