<svg width="15" height="15" viewBox="0 0 15 15" fill="none" xmlns="http://www.w3.org/2000/svg">
<path d="M14.6865 2.3423C14.514 1.42028 14.0058 0.694235 13.3604 0.447824C12.1907 9.53674e-07 7.5 0 7.5 0C7.5 0 2.80937 9.53674e-07 1.63959 0.447824C0.994227 0.694235 0.485928 1.42028 0.313443 2.3423C0 4.01338 0 7.5 0 7.5C0 7.5 0 10.9866 0.313443 12.6578C0.485928 13.5797 0.994227 14.3058 1.63959 14.5523C2.80937 15 7.5 15 7.5 15C7.5 15 12.1907 15 13.3604 14.5523C14.0058 14.3058 14.514 13.5797 14.6865 12.6578C15 10.9866 15 7.5 15 7.5C15 7.5 15 4.01338 14.6865 2.3423Z" fill="white"/>
<path d="M5.96591 10.6656L9.88637 7.50017L5.96591 4.33444V10.6656Z" fill="#677277"/>
</svg>
