<svg width="100" height="100" viewBox="0 0 100 100" fill="none" xmlns="http://www.w3.org/2000/svg">
<path d="M43.5417 83.9999C44.625 84.4582 45.7917 84.8749 47.0417 85.2916L53.625 87.4583C70.1667 92.7916 78.875 88.3332 84.25 71.7916L89.5834 55.3332C94.9167 38.7916 90.5 30.0416 73.9584 24.7083L67.5417 22.5833C68.3334 24.5833 69 26.8749 69.625 29.4583L73.7084 46.9166C78.2917 66.5416 71.5834 77.3749 51.9584 82.0416L44.9584 83.7082C44.5 83.8332 44 83.9166 43.5417 83.9999Z" fill="#0432DF"/>
<g filter="url(#filter0_b_78_100)">
<path d="M28.4583 13.3751L35.4166 11.7501C49.3333 8.45845 57.6249 11.1668 62.4999 21.2501C63.7499 23.7918 64.7499 26.8751 65.5833 30.4168L69.6666 47.8751C73.7499 65.2918 68.3749 73.8751 50.9999 78.0001L43.9999 79.6668C41.5833 80.2501 39.3333 80.6251 37.2499 80.7918C24.2499 82.0418 17.3333 75.9585 13.8333 60.9168L9.74994 43.5001C5.66661 26.0834 10.9999 17.4584 28.4583 13.3751Z" fill="url(#paint0_linear_78_100)"/>
</g>
<path d="M59.8005 48.8266C59.2171 48.8266 58.6576 48.5282 58.2451 47.997C57.8326 47.4658 57.6009 46.7454 57.6009 45.9942V38.6584L43.7657 56.5023C43.5613 56.7678 43.318 56.9785 43.0499 57.1223C42.7819 57.2661 42.4944 57.3401 42.2041 57.3401C41.9137 57.3401 41.6262 57.2661 41.3582 57.1223C41.0901 56.9785 40.8468 56.7678 40.6424 56.5023L33.4059 47.1555L21.7702 62.167C21.356 62.7004 20.7943 63 20.2085 63C19.6228 63 19.0611 62.7004 18.6469 62.167C18.2327 61.6337 18 60.9103 18 60.156C18 59.4018 18.2327 58.6784 18.6469 58.1451L31.8442 41.1509C32.0486 40.8854 32.2919 40.6747 32.56 40.5309C32.828 40.3871 33.1155 40.313 33.4059 40.313C33.6962 40.313 33.9837 40.3871 34.2517 40.5309C34.5198 40.6747 34.7631 40.8854 34.9675 41.1509L42.2041 50.4977L54.4995 34.6647H48.8027C48.2193 34.6647 47.6599 34.3663 47.2474 33.8352C46.8349 33.304 46.6032 32.5836 46.6032 31.8324C46.6032 31.0812 46.8349 30.3608 47.2474 29.8296C47.6599 29.2984 48.2193 29 48.8027 29H59.8005C60.0879 29.0045 60.3718 29.0815 60.6363 29.2266C61.1737 29.514 61.6008 30.064 61.824 30.7561C61.9367 31.0966 61.9965 31.4622 62 31.8324V45.9942C62 46.7454 61.7683 47.4658 61.3558 47.997C60.9433 48.5282 60.3838 48.8266 59.8005 48.8266Z" fill="white"/>
<defs>
<filter id="filter0_b_78_100" x="-11.5516" y="-9.57715" width="102.516" height="110.528" filterUnits="userSpaceOnUse" color-interpolation-filters="sRGB">
<feFlood flood-opacity="0" result="BackgroundImageFix"/>
<feGaussianBlur in="BackgroundImageFix" stdDeviation="10"/>
<feComposite in2="SourceAlpha" operator="in" result="effect1_backgroundBlur_78_100"/>
<feBlend mode="normal" in="SourceGraphic" in2="effect1_backgroundBlur_78_100" result="shape"/>
</filter>
<linearGradient id="paint0_linear_78_100" x1="70.9642" y1="10.4229" x2="-8.9447" y2="45.3697" gradientUnits="userSpaceOnUse">
<stop stop-color="#606060" stop-opacity="0.5"/>
<stop offset="1" stop-color="#606060" stop-opacity="0.25"/>
</linearGradient>
</defs>
</svg>
