<svg width="24" height="30" viewBox="0 0 24 30" fill="none" xmlns="http://www.w3.org/2000/svg">
<path d="M13.1418 27.3805C12.6916 27.8659 12.3027 28.2719 12 28.5824C11.6973 28.2719 11.3084 27.8659 10.8582 27.3805C9.74724 26.1828 8.26832 24.5072 6.79191 22.5925C5.31297 20.6745 3.85219 18.5366 2.76511 16.4134C1.66976 14.274 1 12.2377 1 10.5C1 5.36854 5.78839 1 12 1C18.2116 1 23 5.36854 23 10.5C23 12.2377 22.3302 14.274 21.2349 16.4134C20.1478 18.5366 18.687 20.6745 17.2081 22.5925C15.7317 24.5072 14.2528 26.1828 13.1418 27.3805ZM8.31104 13.9042C9.30941 14.7778 10.6381 15.25 12 15.25C13.3619 15.25 14.6906 14.7778 15.689 13.9042C16.6916 13.0269 17.2857 11.8061 17.2857 10.5C17.2857 9.19385 16.6916 7.97308 15.689 7.09577C14.6906 6.2222 13.3619 5.75 12 5.75C10.6381 5.75 9.30941 6.2222 8.31104 7.09577C7.30841 7.97308 6.71429 9.19385 6.71429 10.5C6.71429 11.8061 7.30841 13.0269 8.31104 13.9042Z" stroke="#ADADAD" stroke-width="2"/>
</svg>
