<svg width="100" height="100" viewBox="0 0 100 100" fill="none" xmlns="http://www.w3.org/2000/svg">
<path d="M43.5416 83.9999C44.625 84.4582 45.7916 84.8749 47.0416 85.2916L53.625 87.4583C70.1666 92.7916 78.875 88.3332 84.25 71.7916L89.5833 55.3332C94.9166 38.7916 90.5 30.0416 73.9583 24.7083L67.5416 22.5833C68.3333 24.5833 69 26.8749 69.625 29.4583L73.7083 46.9166C78.2916 66.5416 71.5833 77.3749 51.9583 82.0416L44.9583 83.7082C44.5 83.8332 44 83.9166 43.5416 83.9999Z" fill="#0432DF"/>
<g filter="url(#filter0_b_78_99)">
<path d="M28.4583 13.3751L35.4167 11.7501C49.3333 8.45845 57.625 11.1668 62.5 21.2501C63.75 23.7918 64.75 26.8751 65.5833 30.4168L69.6667 47.8751C73.75 65.2918 68.375 73.8751 51 78.0001L44 79.6668C41.5833 80.2501 39.3333 80.6251 37.25 80.7918C24.25 82.0418 17.3333 75.9585 13.8333 60.9168L9.75 43.5001C5.66667 26.0834 11 17.4584 28.4583 13.3751Z" fill="url(#paint0_linear_78_99)"/>
</g>
<path d="M40 71.9999C39.7219 72.0031 39.448 71.924 39.2056 71.7707C38.3296 71.2207 18 58.227 18 41.75C18 38.8641 18.8071 36.0514 20.307 33.7102C21.807 31.3691 23.9236 29.6182 26.3572 28.7056C28.7908 27.793 31.4179 27.765 33.8665 28.6254C36.315 29.4859 38.4609 31.1913 40 33.5C41.5391 31.1913 43.685 29.4859 46.1335 28.6254C48.5821 27.765 51.2092 27.793 53.6428 28.7056C56.0764 29.6182 58.193 31.3691 59.693 33.7102C61.1929 36.0514 62 38.8641 62 41.75C62 48.7625 58.3944 55.9583 51.2852 63.1541C48.057 66.419 44.542 69.3061 40.7944 71.7707C40.552 71.924 40.2781 72.0031 40 71.9999ZM30.2222 31.6667C27.8451 31.6667 25.5653 32.729 23.8845 34.62C22.2036 36.511 21.2593 39.0757 21.2593 41.75C21.2593 54.3999 36.3333 65.5145 40 68.0353C43.6667 65.5145 58.7407 54.3999 58.7407 41.75C58.7426 39.419 58.0266 37.1592 56.7144 35.3552C55.4022 33.5512 53.575 32.3143 51.5436 31.8551C49.5121 31.3959 47.402 31.7426 45.5723 32.8363C43.7425 33.9301 42.3061 35.7032 41.5074 37.8541C41.3846 38.1904 41.1758 38.478 40.9074 38.6804C40.639 38.8828 40.3231 38.9909 40 38.9909C39.6769 38.9909 39.361 38.8828 39.0926 38.6804C38.8242 38.478 38.6154 38.1904 38.4926 37.8541C37.8143 36.0168 36.666 34.4477 35.1935 33.3461C33.7209 32.2444 31.9906 31.6598 30.2222 31.6667Z" fill="white"/>
<defs>
<filter id="filter0_b_78_99" x="-11.5516" y="-9.57715" width="102.516" height="110.528" filterUnits="userSpaceOnUse" color-interpolation-filters="sRGB">
<feFlood flood-opacity="0" result="BackgroundImageFix"/>
<feGaussianBlur in="BackgroundImageFix" stdDeviation="10"/>
<feComposite in2="SourceAlpha" operator="in" result="effect1_backgroundBlur_78_99"/>
<feBlend mode="normal" in="SourceGraphic" in2="effect1_backgroundBlur_78_99" result="shape"/>
</filter>
<linearGradient id="paint0_linear_78_99" x1="70.9643" y1="10.4229" x2="-8.94464" y2="45.3697" gradientUnits="userSpaceOnUse">
<stop stop-color="#606060" stop-opacity="0.5"/>
<stop offset="1" stop-color="#606060" stop-opacity="0.25"/>
</linearGradient>
</defs>
</svg>
