<svg width="100" height="100" viewBox="0 0 100 100" fill="none" xmlns="http://www.w3.org/2000/svg">
<path d="M43.5417 83.9999C44.625 84.4582 45.7917 84.8749 47.0417 85.2916L53.625 87.4583C70.1667 92.7916 78.875 88.3332 84.25 71.7916L89.5833 55.3332C94.9167 38.7916 90.5 30.0416 73.9583 24.7083L67.5417 22.5833C68.3333 24.5833 69 26.8749 69.625 29.4583L73.7083 46.9166C78.2917 66.5416 71.5833 77.3749 51.9583 82.0416L44.9583 83.7082C44.5 83.8332 44 83.9166 43.5417 83.9999Z" fill="#0432DF"/>
<g filter="url(#filter0_b_7_5)">
<path d="M28.4583 13.3751L35.4167 11.7501C49.3333 8.45845 57.625 11.1668 62.5 21.2501C63.75 23.7918 64.75 26.8751 65.5833 30.4168L69.6667 47.8751C73.75 65.2918 68.375 73.8751 51 78.0001L44 79.6668C41.5833 80.2501 39.3333 80.6251 37.25 80.7918C24.25 82.0418 17.3333 75.9585 13.8333 60.9168L9.75 43.5001C5.66667 26.0834 11 17.4584 28.4583 13.3751Z" fill="url(#paint0_linear_7_5)"/>
</g>
<path fill-rule="evenodd" clip-rule="evenodd" d="M48.5617 48.0718C51.0733 49.7768 52.8333 52.0868 52.8333 55.1668V60.6668H60.1667V55.1668C60.1667 51.1701 53.6217 48.8051 48.5617 48.0718Z" fill="white"/>
<path d="M34.5 45.9999C38.5501 45.9999 41.8333 42.7167 41.8333 38.6666C41.8333 34.6165 38.5501 31.3333 34.5 31.3333C30.4499 31.3333 27.1667 34.6165 27.1667 38.6666C27.1667 42.7167 30.4499 45.9999 34.5 45.9999Z" fill="white"/>
<path fill-rule="evenodd" clip-rule="evenodd" d="M45.5 45.9999C49.5517 45.9999 52.8333 42.7183 52.8333 38.6666C52.8333 34.6149 49.5517 31.3333 45.5 31.3333C44.6383 31.3333 43.8317 31.5166 43.0617 31.7733C44.6393 33.7243 45.5 36.1575 45.5 38.6666C45.5 41.1757 44.6393 43.6089 43.0617 45.5599C43.8317 45.8166 44.6383 45.9999 45.5 45.9999ZM34.5 47.8333C29.605 47.8333 19.8333 50.2899 19.8333 55.1666V60.6666H49.1667V55.1666C49.1667 50.2899 39.395 47.8333 34.5 47.8333Z" fill="white"/>
<defs>
<filter id="filter0_b_7_5" x="-11.5516" y="-9.57715" width="102.516" height="110.528" filterUnits="userSpaceOnUse" color-interpolation-filters="sRGB">
<feFlood flood-opacity="0" result="BackgroundImageFix"/>
<feGaussianBlur in="BackgroundImageFix" stdDeviation="10"/>
<feComposite in2="SourceAlpha" operator="in" result="effect1_backgroundBlur_7_5"/>
<feBlend mode="normal" in="SourceGraphic" in2="effect1_backgroundBlur_7_5" result="shape"/>
</filter>
<linearGradient id="paint0_linear_7_5" x1="70.9643" y1="10.4229" x2="-8.94464" y2="45.3697" gradientUnits="userSpaceOnUse">
<stop stop-color="#606060" stop-opacity="0.5"/>
<stop offset="1" stop-color="#606060" stop-opacity="0.25"/>
</linearGradient>
</defs>
</svg>
