<svg width="100" height="100" viewBox="0 0 100 100" fill="none" xmlns="http://www.w3.org/2000/svg">
<path d="M43.5417 83.9999C44.625 84.4582 45.7917 84.8749 47.0417 85.2916L53.625 87.4583C70.1667 92.7916 78.875 88.3332 84.25 71.7916L89.5833 55.3332C94.9167 38.7916 90.5 30.0416 73.9583 24.7083L67.5417 22.5833C68.3333 24.5833 69 26.8749 69.625 29.4583L73.7083 46.9166C78.2917 66.5416 71.5833 77.3749 51.9583 82.0416L44.9583 83.7082C44.5 83.8332 44 83.9166 43.5417 83.9999Z" fill="#0432DF"/>
<g filter="url(#filter0_b_78_101)">
<path d="M28.4583 13.3751L35.4167 11.7501C49.3333 8.45845 57.625 11.1668 62.5 21.2501C63.75 23.7918 64.75 26.8751 65.5833 30.4168L69.6667 47.8751C73.75 65.2918 68.375 73.8751 51 78.0001L44 79.6668C41.5833 80.2501 39.3333 80.6251 37.25 80.7918C24.25 82.0418 17.3333 75.9585 13.8333 60.9168L9.75 43.5001C5.66667 26.0834 11 17.4584 28.4583 13.3751Z" fill="url(#paint0_linear_78_101)"/>
</g>
<path d="M40 24C35.6488 24 31.3953 25.2903 27.7775 27.7077C24.1596 30.1251 21.3398 33.561 19.6747 37.581C18.0095 41.6009 17.5739 46.0244 18.4227 50.292C19.2716 54.5596 21.3669 58.4796 24.4437 61.5563C27.5204 64.6331 31.4404 66.7284 35.708 67.5773C39.9756 68.4261 44.3991 67.9905 48.419 66.3253C52.439 64.6602 55.8749 61.8404 58.2923 58.2225C60.7097 54.6047 62 50.3512 62 46C61.9888 40.1687 59.6674 34.5794 55.544 30.456C51.4206 26.3326 45.8313 24.0112 40 24ZM40 64.6154C36.3182 64.6154 32.7191 63.5236 29.6579 61.4781C26.5966 59.4326 24.2106 56.5253 22.8016 53.1238C21.3927 49.7223 21.024 45.9793 21.7423 42.3683C22.4606 38.7573 24.2335 35.4403 26.8369 32.8369C29.4404 30.2335 32.7573 28.4606 36.3683 27.7423C39.9794 27.024 43.7223 27.3927 47.1238 28.8016C50.5253 30.2106 53.4326 32.5966 55.4781 35.6578C57.5236 38.7191 58.6154 42.3182 58.6154 46C58.6098 50.9354 56.6467 55.667 53.1569 59.1569C49.667 62.6467 44.9354 64.6098 40 64.6154ZM29.8462 41.7692C29.8462 41.2672 29.995 40.7764 30.274 40.3589C30.5529 39.9415 30.9494 39.6161 31.4132 39.424C31.877 39.2319 32.3874 39.1816 32.8799 39.2795C33.3723 39.3775 33.8246 39.6193 34.1796 39.9743C34.5346 40.3293 34.7764 40.7816 34.8743 41.274C34.9723 41.7664 34.922 42.2768 34.7299 42.7407C34.5377 43.2045 34.2124 43.601 33.7949 43.8799C33.3775 44.1588 32.8867 44.3077 32.3846 44.3077C31.7114 44.3077 31.0657 44.0402 30.5897 43.5642C30.1136 43.0881 29.8462 42.4425 29.8462 41.7692ZM45.0769 41.7692C45.0769 41.2672 45.2258 40.7764 45.5047 40.3589C45.7837 39.9415 46.1801 39.6161 46.644 39.424C47.1078 39.2319 47.6182 39.1816 48.1106 39.2795C48.603 39.3775 49.0553 39.6193 49.4104 39.9743C49.7654 40.3293 50.0071 40.7816 50.1051 41.274C50.203 41.7664 50.1527 42.2768 49.9606 42.7407C49.7685 43.2045 49.4431 43.601 49.0257 43.8799C48.6082 44.1588 48.1174 44.3077 47.6154 44.3077C46.9421 44.3077 46.2965 44.0402 45.8204 43.5642C45.3444 43.0881 45.0769 42.4425 45.0769 41.7692ZM50.2596 51.9231C49.22 53.7242 47.7245 55.2198 45.9236 56.2597C44.1226 57.2996 42.0796 57.8471 40 57.8471C37.9204 57.8471 35.8774 57.2996 34.0765 56.2597C32.2755 55.2198 30.78 53.7242 29.7404 51.9231C29.6079 51.7309 29.5167 51.5135 29.4723 51.2844C29.4279 51.0552 29.4314 50.8194 29.4826 50.5917C29.5337 50.364 29.6314 50.1494 29.7695 49.9613C29.9076 49.7731 30.0831 49.6156 30.285 49.4985C30.4869 49.3815 30.7108 49.3075 30.9427 49.2811C31.1746 49.2548 31.4094 49.2767 31.6324 49.3455C31.8554 49.4142 32.0618 49.5284 32.2386 49.6807C32.4153 49.8331 32.5587 50.0203 32.6596 50.2308C33.4049 51.5176 34.4754 52.5858 35.7637 53.3285C37.052 54.0711 38.513 54.462 40 54.462C41.487 54.462 42.948 54.0711 44.2363 53.3285C45.5246 52.5858 46.5951 51.5176 47.3404 50.2308C47.5821 49.8801 47.9472 49.6334 48.3629 49.54C48.7785 49.4467 49.214 49.5135 49.5825 49.7271C49.951 49.9408 50.2254 50.2855 50.3509 50.6925C50.4764 51.0996 50.4438 51.539 50.2596 51.9231Z" fill="white"/>
<defs>
<filter id="filter0_b_78_101" x="-11.5516" y="-9.57715" width="102.516" height="110.528" filterUnits="userSpaceOnUse" color-interpolation-filters="sRGB">
<feFlood flood-opacity="0" result="BackgroundImageFix"/>
<feGaussianBlur in="BackgroundImageFix" stdDeviation="10"/>
<feComposite in2="SourceAlpha" operator="in" result="effect1_backgroundBlur_78_101"/>
<feBlend mode="normal" in="SourceGraphic" in2="effect1_backgroundBlur_78_101" result="shape"/>
</filter>
<linearGradient id="paint0_linear_78_101" x1="70.9643" y1="10.4229" x2="-8.94464" y2="45.3697" gradientUnits="userSpaceOnUse">
<stop stop-color="#606060" stop-opacity="0.5"/>
<stop offset="1" stop-color="#606060" stop-opacity="0.25"/>
</linearGradient>
</defs>
</svg>
