<svg width="15" height="15" viewBox="0 0 15 15" fill="none" xmlns="http://www.w3.org/2000/svg">
<path d="M4.71189 15C10.3721 15 13.4694 9.22736 13.4694 4.22982C13.4694 4.06742 13.4694 3.90502 13.4634 3.74262C14.0636 3.21112 14.5858 2.53937 15 1.77904C14.4478 2.08169 13.8535 2.281 13.2293 2.37697C13.8655 1.91191 14.3517 1.16634 14.5858 0.280511C13.9916 0.716043 13.3313 1.02608 12.6291 1.19587C12.0648 0.457677 11.2665 0 10.3842 0C8.68547 0 7.30492 1.69783 7.30492 3.78691C7.30492 4.08218 7.33493 4.37008 7.38295 4.65059C4.82593 4.49557 2.55702 2.98228 1.03842 0.693898C0.77431 1.25492 0.62425 1.90453 0.62425 2.59843C0.62425 3.9124 1.17047 5.07136 1.9928 5.75049C1.4886 5.72835 1.01441 5.55856 0.60024 5.27805C0.60024 5.29281 0.60024 5.30758 0.60024 5.32972C0.60024 7.16043 1.66267 8.69586 3.06723 9.04281C2.80912 9.1314 2.53902 9.17569 2.2569 9.17569C2.05882 9.17569 1.86675 9.15354 1.68067 9.10925C2.07083 10.6152 3.21128 11.7077 4.55582 11.7372C3.4994 12.7559 2.17287 13.3612 0.732293 13.3612C0.486195 13.3612 0.240096 13.3465 0 13.3095C1.35654 14.3725 2.97719 15 4.71189 15Z" fill="white"/>
</svg>
